{
  "version": "",
  "modules": [
    {
      "plugin": "Fundamental",
      "model": "Scope",
      "pos": [
        480.0,
        0.0
      ],
      "params": [
        0.0,
        -1.7699992656707764,
        0.0,
        0.0,
        -6.3149986267089844,
        0.0,
        0.0,
        0.0
      ],
      "data": {
        "lissajous": 0,
        "external": 0
      }
    },
    {
      "plugin": "Fundamental",
      "model": "LFO",
      "pos": [
        0.0,
        0.0
      ],
      "params": [
        1.0,
        1.0,
        -2.260000467300415,
        0.0,
        0.5,
        0.0,
        0.0
      ]
    },
    {
      "plugin": "DHE-Modules",
      "model": "Stage",
      "pos": [
        195.0,
        0.0
      ],
      "params": [
        1.0,
        0.19850006699562073,
        0.5
      ]
    },
    {
      "plugin": "DHE-Modules",
      "model": "Stage",
      "pos": [
        255.0,
        0.0
      ],
      "params": [
        0.0,
        0.78649979829788208,
        0.5
      ]
    },
    {
      "plugin": "DHE-Modules",
      "model": "Stage",
      "pos": [
        315.0,
        0.0
      ],
      "params": [
        1.0,
        0.80600035190582275,
        0.5
      ]
    },
    {
      "plugin": "DHE-Modules",
      "model": "Stage",
      "pos": [
        375.0,
        0.0
      ],
      "params": [
        0.0,
        0.20000004768371582,
        0.5
      ]
    }
  ],
  "wires": [
    {
      "outputModuleId": 2,
      "outputId": 0,
      "inputModuleId": 3,
      "inputId": 0
    },
    {
      "outputModuleId": 3,
      "outputId": 0,
      "inputModuleId": 4,
      "inputId": 0
    },
    {
      "outputModuleId": 4,
      "outputId": 0,
      "inputModuleId": 5,
      "inputId": 0
    },
    {
      "outputModuleId": 2,
      "outputId": 1,
      "inputModuleId": 3,
      "inputId": 1
    },
    {
      "outputModuleId": 3,
      "outputId": 1,
      "inputModuleId": 4,
      "inputId": 1
    },
    {
      "outputModuleId": 4,
      "outputId": 1,
      "inputModuleId": 5,
      "inputId": 1
    },
    {
      "outputModuleId": 2,
      "outputId": 2,
      "inputModuleId": 3,
      "inputId": 2
    },
    {
      "outputModuleId": 3,
      "outputId": 2,
      "inputModuleId": 4,
      "inputId": 2
    },
    {
      "outputModuleId": 4,
      "outputId": 2,
      "inputModuleId": 5,
      "inputId": 2
    },
    {
      "outputModuleId": 5,
      "outputId": 2,
      "inputModuleId": 0,
      "inputId": 0
    },
    {
      "outputModuleId": 1,
      "outputId": 3,
      "inputModuleId": 2,
      "inputId": 1
    }
  ]
}